<svg fill="none" height="180" viewBox="0 0 180 180" width="180" xmlns="http://www.w3.org/2000/svg"><path d="m98.2383 157.16c.7812 0 1.4258-.254 1.9337-.762.508-.468.84-1.113.996-1.933.82-6.406 1.738-11.817 2.754-16.231 1.055-4.414 2.422-8.046 4.101-10.898 1.719-2.852 3.985-5.117 6.797-6.797 2.813-1.719 6.387-3.066 10.723-4.043 4.336-.976 9.687-1.816 16.055-2.519.82-.079 1.484-.391 1.992-.938s.762-1.211.762-1.992c0-.742-.254-1.387-.762-1.934s-1.172-.859-1.992-.937c-6.368-.703-11.719-1.543-16.055-2.52-4.336-.976-7.91-2.324-10.723-4.043-2.812-1.7185-5.078-4.0036-6.797-6.8552-1.679-2.8516-3.046-6.4648-4.101-10.8398-1.016-4.4141-1.934-9.8438-2.754-16.2891-.156-.7812-.488-1.4062-.996-1.875-.5079-.5078-1.1525-.7617-1.9337-.7617-.7422 0-1.3867.2539-1.9336.7617-.5078.4688-.8203 1.0938-.9375 1.875-.8203 6.4453-1.7578 11.875-2.8125 16.2891-1.0156 4.375-2.3828 7.9882-4.1016 10.8398-1.7187 2.8516-3.9843 5.1367-6.7969 6.8552-2.8124 1.719-6.3867 3.067-10.7226 4.043-4.3359.977-9.668 1.817-15.9961 2.52-.8594.078-1.543.39-2.0508.937s-.7617 1.192-.7617 1.934c0 .781.2539 1.445.7617 1.992s1.1914.859 2.0508.938c6.3281.82 11.6406 1.757 15.9375 2.812 4.3359 1.016 7.8906 2.363 10.6641 4.043 2.8125 1.68 5.0781 3.926 6.7968 6.738 1.7188 2.813 3.086 6.387 4.1016 10.723 1.0547 4.375 2.0313 9.766 2.9297 16.172.1172.82.4297 1.465.9375 1.933.5469.508 1.1914.762 1.9336.762zm-39.7266-64.8045c.5469 0 .9961-.1758 1.3477-.5274.3515-.3515.5664-.7812.6445-1.289.5078-3.9063 1.0352-6.9532 1.582-9.1407.5469-2.1875 1.3868-3.8281 2.5196-4.9218 1.1718-1.1328 2.8906-1.9922 5.1562-2.5782 2.3047-.625 5.4883-1.3281 9.5508-2.1093 1.1719-.2344 1.7578-.8985 1.7578-1.9922 0-.5469-.1758-.9961-.5273-1.3477-.3125-.3515-.7227-.5469-1.2305-.5859-4.0625-.586-7.2461-1.1524-9.5508-1.6992-2.3047-.5469-4.0429-1.3868-5.2148-2.5196-1.1328-1.1718-1.9727-2.8906-2.5196-5.1562-.5078-2.2656-1.0156-5.3711-1.5234-9.3164-.1562-1.25-.8203-1.875-1.9922-1.875s-1.8359.6445-1.9922 1.9336c-.4687 3.9062-.9765 6.9531-1.5234 9.1406-.5469 2.1484-1.4063 3.7695-2.5781 4.8633-1.1719 1.0937-2.9102 1.9531-5.2149 2.5781-2.3047.5859-5.4687 1.2695-9.4922 2.0508-1.1718.1953-1.7578.8398-1.7578 1.9336 0 1.1328.6641 1.7969 1.9922 1.9922 3.9844.664 7.1094 1.289 9.375 1.875 2.3047.5859 4.0235 1.4453 5.1563 2.5781 1.1718 1.0937 2.0117 2.7539 2.5195 4.9805.5469 2.2265 1.0547 5.2929 1.5234 9.1992.1563 1.289.8203 1.9336 1.9922 1.9336zm28.3594-40.3125c.7031 0 1.1328-.3907 1.2891-1.1719.4296-2.3828.8203-4.2578 1.1718-5.625.3516-1.3672.8594-2.4023 1.5235-3.1055.7031-.7422 1.7578-1.3281 3.164-1.7578 1.4063-.4297 3.3789-.8594 5.918-1.289.7815-.1563 1.1715-.6055 1.1715-1.3477 0-.7031-.39-1.1328-1.1715-1.2891-2.5391-.4687-4.5117-.8984-5.918-1.289-1.4062-.4297-2.4609-.9961-3.164-1.6992-.6641-.7422-1.1719-1.7969-1.5235-3.1641-.3515-1.3672-.7422-3.2422-1.1718-5.625-.1563-.7813-.586-1.1719-1.2891-1.1719-.7422 0-1.1719.3906-1.2891 1.1719-.4687 2.3828-.8789 4.2578-1.2304 5.625-.3125 1.3672-.8204 2.4219-1.5235 3.1641-.664.7031-1.6992 1.2695-3.1054 1.6992-1.4063.3906-3.3789.8203-5.918 1.289-.7813.1563-1.1719.586-1.1719 1.2891 0 .7422.3906 1.1914 1.1719 1.3477 2.5391.4296 4.5117.8593 5.918 1.289 1.4062.4297 2.4414 1.0156 3.1054 1.7578.7031.7032 1.211 1.7383 1.5235 3.1055.3515 1.3672.7617 3.2422 1.2304 5.625.1172.7812.5469 1.1719 1.2891 1.1719z" fill="#fff"/></svg>